<mxfile host="app.diagrams.net" modified="2024-02-10T23:22:06.735Z" agent="Mozilla/5.0 (Windows NT 10.0; Win64; x64) AppleWebKit/537.36 (KHTML, like Gecko) Chrome/121.0.0.0 Safari/537.36" etag="gi7cd00R3xR_AGzLIB02" version="23.1.1" type="github">
  <diagram name="Main" id="oEUVDyQjlwKjtCudU3KM">
    <mxGraphModel dx="2931" dy="1429" grid="1" gridSize="10" guides="1" tooltips="1" connect="1" arrows="1" fold="1" page="1" pageScale="1" pageWidth="827" pageHeight="1169" math="0" shadow="0">
      <root>
        <mxCell id="0" />
        <mxCell id="1" parent="0" />
        <mxCell id="XT_5N_Ekcf1tHaGKVYIL-22" style="edgeStyle=orthogonalEdgeStyle;rounded=0;orthogonalLoop=1;jettySize=auto;html=1;" edge="1" parent="1" source="XT_5N_Ekcf1tHaGKVYIL-1" target="XT_5N_Ekcf1tHaGKVYIL-3">
          <mxGeometry relative="1" as="geometry" />
        </mxCell>
        <mxCell id="XT_5N_Ekcf1tHaGKVYIL-1" value="static void Main(string[] args)" style="rounded=1;whiteSpace=wrap;html=1;arcSize=50;" vertex="1" parent="1">
          <mxGeometry x="375" y="410" width="120" height="60" as="geometry" />
        </mxCell>
        <mxCell id="XT_5N_Ekcf1tHaGKVYIL-2" value="Кінець" style="rounded=1;whiteSpace=wrap;html=1;arcSize=50;" vertex="1" parent="1">
          <mxGeometry x="370" y="1430" width="120" height="60" as="geometry" />
        </mxCell>
        <mxCell id="XT_5N_Ekcf1tHaGKVYIL-21" style="edgeStyle=orthogonalEdgeStyle;rounded=0;orthogonalLoop=1;jettySize=auto;html=1;" edge="1" parent="1" source="XT_5N_Ekcf1tHaGKVYIL-3" target="XT_5N_Ekcf1tHaGKVYIL-4">
          <mxGeometry relative="1" as="geometry" />
        </mxCell>
        <mxCell id="XT_5N_Ekcf1tHaGKVYIL-3" value="bool isValidInput = false;" style="rounded=0;whiteSpace=wrap;html=1;" vertex="1" parent="1">
          <mxGeometry x="375" y="500" width="120" height="60" as="geometry" />
        </mxCell>
        <mxCell id="XT_5N_Ekcf1tHaGKVYIL-20" style="edgeStyle=orthogonalEdgeStyle;rounded=0;orthogonalLoop=1;jettySize=auto;html=1;" edge="1" parent="1" source="XT_5N_Ekcf1tHaGKVYIL-4" target="XT_5N_Ekcf1tHaGKVYIL-5">
          <mxGeometry relative="1" as="geometry" />
        </mxCell>
        <mxCell id="XT_5N_Ekcf1tHaGKVYIL-4" value="!isValidInput" style="rhombus;whiteSpace=wrap;html=1;" vertex="1" parent="1">
          <mxGeometry x="360" y="600" width="150" height="80" as="geometry" />
        </mxCell>
        <mxCell id="XT_5N_Ekcf1tHaGKVYIL-19" style="edgeStyle=orthogonalEdgeStyle;rounded=0;orthogonalLoop=1;jettySize=auto;html=1;entryX=0.5;entryY=0;entryDx=0;entryDy=0;" edge="1" parent="1" source="XT_5N_Ekcf1tHaGKVYIL-5" target="XT_5N_Ekcf1tHaGKVYIL-6">
          <mxGeometry relative="1" as="geometry" />
        </mxCell>
        <mxCell id="XT_5N_Ekcf1tHaGKVYIL-5" value="int[] input = Console.ReadLine()&lt;br&gt;.Split(&#39; &#39;).Select(int.Parse).&lt;br&gt;ToArray();" style="shape=parallelogram;perimeter=parallelogramPerimeter;whiteSpace=wrap;html=1;fixedSize=1;" vertex="1" parent="1">
          <mxGeometry x="330" y="710" width="210" height="60" as="geometry" />
        </mxCell>
        <mxCell id="XT_5N_Ekcf1tHaGKVYIL-7" style="edgeStyle=orthogonalEdgeStyle;rounded=0;orthogonalLoop=1;jettySize=auto;html=1;" edge="1" parent="1" source="XT_5N_Ekcf1tHaGKVYIL-6" target="XT_5N_Ekcf1tHaGKVYIL-8">
          <mxGeometry relative="1" as="geometry">
            <mxPoint x="590" y="970" as="targetPoint" />
          </mxGeometry>
        </mxCell>
        <mxCell id="XT_5N_Ekcf1tHaGKVYIL-14" style="edgeStyle=orthogonalEdgeStyle;rounded=0;orthogonalLoop=1;jettySize=auto;html=1;entryX=0.5;entryY=0;entryDx=0;entryDy=0;" edge="1" parent="1" source="XT_5N_Ekcf1tHaGKVYIL-6" target="XT_5N_Ekcf1tHaGKVYIL-13">
          <mxGeometry relative="1" as="geometry">
            <Array as="points">
              <mxPoint x="290" y="860" />
            </Array>
          </mxGeometry>
        </mxCell>
        <mxCell id="XT_5N_Ekcf1tHaGKVYIL-6" value="input.Length == 3" style="rhombus;whiteSpace=wrap;html=1;" vertex="1" parent="1">
          <mxGeometry x="362.5" y="820" width="145" height="80" as="geometry" />
        </mxCell>
        <mxCell id="XT_5N_Ekcf1tHaGKVYIL-9" style="edgeStyle=orthogonalEdgeStyle;rounded=0;orthogonalLoop=1;jettySize=auto;html=1;" edge="1" parent="1" source="XT_5N_Ekcf1tHaGKVYIL-8" target="XT_5N_Ekcf1tHaGKVYIL-10">
          <mxGeometry relative="1" as="geometry">
            <mxPoint x="730" y="1040" as="targetPoint" />
            <Array as="points">
              <mxPoint x="730" y="970" />
            </Array>
          </mxGeometry>
        </mxCell>
        <mxCell id="XT_5N_Ekcf1tHaGKVYIL-17" style="edgeStyle=orthogonalEdgeStyle;rounded=0;orthogonalLoop=1;jettySize=auto;html=1;entryX=0.5;entryY=0;entryDx=0;entryDy=0;" edge="1" parent="1" source="XT_5N_Ekcf1tHaGKVYIL-8" target="XT_5N_Ekcf1tHaGKVYIL-11">
          <mxGeometry relative="1" as="geometry">
            <Array as="points">
              <mxPoint x="510" y="970" />
              <mxPoint x="510" y="1140" />
              <mxPoint x="630" y="1140" />
            </Array>
          </mxGeometry>
        </mxCell>
        <mxCell id="XT_5N_Ekcf1tHaGKVYIL-8" value="!IsSorted(input)" style="rhombus;whiteSpace=wrap;html=1;" vertex="1" parent="1">
          <mxGeometry x="550" y="930" width="120" height="80" as="geometry" />
        </mxCell>
        <mxCell id="XT_5N_Ekcf1tHaGKVYIL-15" style="edgeStyle=orthogonalEdgeStyle;rounded=0;orthogonalLoop=1;jettySize=auto;html=1;entryX=0.5;entryY=0;entryDx=0;entryDy=0;" edge="1" parent="1" source="XT_5N_Ekcf1tHaGKVYIL-10" target="XT_5N_Ekcf1tHaGKVYIL-11">
          <mxGeometry relative="1" as="geometry" />
        </mxCell>
        <mxCell id="XT_5N_Ekcf1tHaGKVYIL-10" value="InsertionSort(input);" style="shape=process;whiteSpace=wrap;html=1;backgroundOutline=1;" vertex="1" parent="1">
          <mxGeometry x="660" y="1030" width="150" height="60" as="geometry" />
        </mxCell>
        <mxCell id="XT_5N_Ekcf1tHaGKVYIL-16" value="" style="edgeStyle=orthogonalEdgeStyle;rounded=0;orthogonalLoop=1;jettySize=auto;html=1;" edge="1" parent="1" source="XT_5N_Ekcf1tHaGKVYIL-11" target="XT_5N_Ekcf1tHaGKVYIL-12">
          <mxGeometry relative="1" as="geometry" />
        </mxCell>
        <mxCell id="XT_5N_Ekcf1tHaGKVYIL-11" value="PrintAllPermutations(input);" style="shape=process;whiteSpace=wrap;html=1;backgroundOutline=1;" vertex="1" parent="1">
          <mxGeometry x="530" y="1190" width="200" height="60" as="geometry" />
        </mxCell>
        <mxCell id="XT_5N_Ekcf1tHaGKVYIL-23" style="edgeStyle=orthogonalEdgeStyle;rounded=0;orthogonalLoop=1;jettySize=auto;html=1;" edge="1" parent="1" source="XT_5N_Ekcf1tHaGKVYIL-12">
          <mxGeometry relative="1" as="geometry">
            <mxPoint x="430" y="1430" as="targetPoint" />
          </mxGeometry>
        </mxCell>
        <mxCell id="XT_5N_Ekcf1tHaGKVYIL-12" value="isValidInput = true;" style="rounded=0;whiteSpace=wrap;html=1;" vertex="1" parent="1">
          <mxGeometry x="570" y="1290" width="120" height="60" as="geometry" />
        </mxCell>
        <mxCell id="XT_5N_Ekcf1tHaGKVYIL-18" style="edgeStyle=orthogonalEdgeStyle;rounded=0;orthogonalLoop=1;jettySize=auto;html=1;entryX=0;entryY=0.5;entryDx=0;entryDy=0;" edge="1" parent="1" source="XT_5N_Ekcf1tHaGKVYIL-13" target="XT_5N_Ekcf1tHaGKVYIL-4">
          <mxGeometry relative="1" as="geometry">
            <Array as="points">
              <mxPoint x="180" y="990" />
              <mxPoint x="180" y="640" />
            </Array>
          </mxGeometry>
        </mxCell>
        <mxCell id="XT_5N_Ekcf1tHaGKVYIL-13" value="try again :)" style="shape=parallelogram;perimeter=parallelogramPerimeter;whiteSpace=wrap;html=1;fixedSize=1;" vertex="1" parent="1">
          <mxGeometry x="230" y="960" width="120" height="60" as="geometry" />
        </mxCell>
      </root>
    </mxGraphModel>
  </diagram>
</mxfile>
